<svg width="356" height="229" viewBox="0 0 356 229" fill="none" xmlns="http://www.w3.org/2000/svg">
<g filter="url(#filter0_dddddd_7_6859)">
<path d="M275.497 14.6659C277.258 8.29635 272.467 2 265.859 2L97.6095 2C93.1134 2 89.17 5.0007 87.9714 9.33414L80.5033 36.3341C78.7415 42.7037 83.5328 49 90.1414 49H258.39C262.887 49 266.83 45.9993 268.029 41.6659L275.497 14.6659Z" fill="#EA0000"/>
</g>
<path d="M123.194 26.296H119.702L119.102 28H117.674L120.662 19.648H122.246L125.234 28H123.794L123.194 26.296ZM122.81 25.18L121.454 21.304L120.086 25.18H122.81ZM126.077 24.664C126.077 24 126.213 23.412 126.485 22.9C126.765 22.388 127.141 21.992 127.613 21.712C128.093 21.424 128.625 21.28 129.209 21.28C129.641 21.28 130.065 21.376 130.481 21.568C130.905 21.752 131.241 22 131.489 22.312V19.12H132.869V28H131.489V27.004C131.265 27.324 130.953 27.588 130.553 27.796C130.161 28.004 129.709 28.108 129.197 28.108C128.621 28.108 128.093 27.964 127.613 27.676C127.141 27.38 126.765 26.972 126.485 26.452C126.213 25.924 126.077 25.328 126.077 24.664ZM131.489 24.688C131.489 24.232 131.393 23.836 131.201 23.5C131.017 23.164 130.773 22.908 130.469 22.732C130.165 22.556 129.837 22.468 129.485 22.468C129.133 22.468 128.805 22.556 128.501 22.732C128.197 22.9 127.949 23.152 127.757 23.488C127.573 23.816 127.481 24.208 127.481 24.664C127.481 25.12 127.573 25.52 127.757 25.864C127.949 26.208 128.197 26.472 128.501 26.656C128.813 26.832 129.141 26.92 129.485 26.92C129.837 26.92 130.165 26.832 130.469 26.656C130.773 26.48 131.017 26.224 131.201 25.888C131.393 25.544 131.489 25.144 131.489 24.688ZM134.21 24.664C134.21 24 134.346 23.412 134.618 22.9C134.898 22.388 135.274 21.992 135.746 21.712C136.226 21.424 136.758 21.28 137.342 21.28C137.774 21.28 138.198 21.376 138.614 21.568C139.038 21.752 139.374 22 139.622 22.312V19.12H141.002V28H139.622V27.004C139.398 27.324 139.086 27.588 138.686 27.796C138.294 28.004 137.842 28.108 137.33 28.108C136.754 28.108 136.226 27.964 135.746 27.676C135.274 27.38 134.898 26.972 134.618 26.452C134.346 25.924 134.21 25.328 134.21 24.664ZM139.622 24.688C139.622 24.232 139.526 23.836 139.334 23.5C139.15 23.164 138.906 22.908 138.602 22.732C138.298 22.556 137.97 22.468 137.618 22.468C137.266 22.468 136.938 22.556 136.634 22.732C136.33 22.9 136.082 23.152 135.89 23.488C135.706 23.816 135.614 24.208 135.614 24.664C135.614 25.12 135.706 25.52 135.89 25.864C136.082 26.208 136.33 26.472 136.634 26.656C136.946 26.832 137.274 26.92 137.618 26.92C137.97 26.92 138.298 26.832 138.602 26.656C138.906 26.48 139.15 26.224 139.334 25.888C139.526 25.544 139.622 25.144 139.622 24.688ZM147.512 22.504V26.164C147.512 26.412 147.568 26.592 147.68 26.704C147.8 26.808 148 26.86 148.28 26.86H149.12V28H148.04C147.424 28 146.952 27.856 146.624 27.568C146.296 27.28 146.132 26.812 146.132 26.164V22.504H145.352V21.388H146.132V19.744H147.512V21.388H149.12V22.504H147.512ZM153.248 28.108C152.624 28.108 152.06 27.968 151.556 27.688C151.052 27.4 150.656 27 150.368 26.488C150.08 25.968 149.936 25.368 149.936 24.688C149.936 24.016 150.084 23.42 150.38 22.9C150.676 22.38 151.08 21.98 151.592 21.7C152.104 21.42 152.676 21.28 153.308 21.28C153.94 21.28 154.512 21.42 155.024 21.7C155.536 21.98 155.94 22.38 156.236 22.9C156.532 23.42 156.68 24.016 156.68 24.688C156.68 25.36 156.528 25.956 156.224 26.476C155.92 26.996 155.504 27.4 154.976 27.688C154.456 27.968 153.88 28.108 153.248 28.108ZM153.248 26.92C153.6 26.92 153.928 26.836 154.232 26.668C154.544 26.5 154.796 26.248 154.988 25.912C155.18 25.576 155.276 25.168 155.276 24.688C155.276 24.208 155.184 23.804 155 23.476C154.816 23.14 154.572 22.888 154.268 22.72C153.964 22.552 153.636 22.468 153.284 22.468C152.932 22.468 152.604 22.552 152.3 22.72C152.004 22.888 151.768 23.14 151.592 23.476C151.416 23.804 151.328 24.208 151.328 24.688C151.328 25.4 151.508 25.952 151.868 26.344C152.236 26.728 152.696 26.92 153.248 26.92ZM160.694 23.812C160.694 22.996 160.882 22.264 161.258 21.616C161.642 20.968 162.158 20.464 162.806 20.104C163.462 19.736 164.178 19.552 164.954 19.552C165.842 19.552 166.63 19.772 167.318 20.212C168.014 20.644 168.518 21.26 168.83 22.06H167.186C166.97 21.62 166.67 21.292 166.286 21.076C165.902 20.86 165.458 20.752 164.954 20.752C164.402 20.752 163.91 20.876 163.478 21.124C163.046 21.372 162.706 21.728 162.458 22.192C162.218 22.656 162.098 23.196 162.098 23.812C162.098 24.428 162.218 24.968 162.458 25.432C162.706 25.896 163.046 26.256 163.478 26.512C163.91 26.76 164.402 26.884 164.954 26.884C165.458 26.884 165.902 26.776 166.286 26.56C166.67 26.344 166.97 26.016 167.186 25.576H168.83C168.518 26.376 168.014 26.992 167.318 27.424C166.63 27.856 165.842 28.072 164.954 28.072C164.17 28.072 163.454 27.892 162.806 27.532C162.158 27.164 161.642 26.656 161.258 26.008C160.882 25.36 160.694 24.628 160.694 23.812ZM169.975 24.664C169.975 24 170.111 23.412 170.383 22.9C170.663 22.388 171.039 21.992 171.511 21.712C171.991 21.424 172.519 21.28 173.095 21.28C173.615 21.28 174.067 21.384 174.451 21.592C174.843 21.792 175.155 22.044 175.387 22.348V21.388H176.767V28H175.387V27.016C175.155 27.328 174.839 27.588 174.439 27.796C174.039 28.004 173.583 28.108 173.071 28.108C172.503 28.108 171.983 27.964 171.511 27.676C171.039 27.38 170.663 26.972 170.383 26.452C170.111 25.924 169.975 25.328 169.975 24.664ZM175.387 24.688C175.387 24.232 175.291 23.836 175.099 23.5C174.915 23.164 174.671 22.908 174.367 22.732C174.063 22.556 173.735 22.468 173.383 22.468C173.031 22.468 172.703 22.556 172.399 22.732C172.095 22.9 171.847 23.152 171.655 23.488C171.471 23.816 171.379 24.208 171.379 24.664C171.379 25.12 171.471 25.52 171.655 25.864C171.847 26.208 172.095 26.472 172.399 26.656C172.711 26.832 173.039 26.92 173.383 26.92C173.735 26.92 174.063 26.832 174.367 26.656C174.671 26.48 174.915 26.224 175.099 25.888C175.291 25.544 175.387 25.144 175.387 24.688ZM179.932 22.348C180.132 22.012 180.396 21.752 180.724 21.568C181.06 21.376 181.456 21.28 181.912 21.28V22.696H181.564C181.028 22.696 180.62 22.832 180.34 23.104C180.068 23.376 179.932 23.848 179.932 24.52V28H178.564V21.388H179.932V22.348ZM184.766 22.504V26.164C184.766 26.412 184.822 26.592 184.934 26.704C185.054 26.808 185.254 26.86 185.534 26.86H186.374V28H185.294C184.678 28 184.206 27.856 183.878 27.568C183.55 27.28 183.386 26.812 183.386 26.164V22.504H182.606V21.388H183.386V19.744H184.766V21.388H186.374V22.504H184.766Z" fill="#F9F9F9"/>
<path d="M209.565 25.624C209.565 26.024 209.465 26.4 209.265 26.752C209.073 27.104 208.785 27.4 208.401 27.64C208.025 27.88 207.577 28.024 207.057 28.072V29.044H206.277V28.072C205.525 28 204.917 27.764 204.453 27.364C203.989 26.964 203.757 26.436 203.757 25.78H205.221C205.245 26.092 205.345 26.352 205.521 26.56C205.697 26.76 205.949 26.888 206.277 26.944V24.304C205.741 24.168 205.305 24.032 204.969 23.896C204.633 23.752 204.345 23.528 204.105 23.224C203.873 22.92 203.757 22.504 203.757 21.976C203.757 21.312 203.989 20.764 204.453 20.332C204.917 19.892 205.525 19.636 206.277 19.564V18.592H207.057V19.564C207.761 19.628 208.325 19.852 208.749 20.236C209.181 20.612 209.425 21.132 209.481 21.796H208.017C207.993 21.548 207.897 21.328 207.729 21.136C207.561 20.936 207.337 20.8 207.057 20.728V23.32C207.593 23.448 208.029 23.584 208.365 23.728C208.701 23.864 208.985 24.084 209.217 24.388C209.449 24.684 209.565 25.096 209.565 25.624ZM205.149 21.904C205.149 22.232 205.245 22.488 205.437 22.672C205.637 22.856 205.917 23.004 206.277 23.116V20.692C205.933 20.732 205.657 20.856 205.449 21.064C205.249 21.272 205.149 21.552 205.149 21.904ZM207.057 26.944C207.409 26.888 207.685 26.748 207.885 26.524C208.085 26.292 208.185 26.016 208.185 25.696C208.185 25.376 208.085 25.128 207.885 24.952C207.693 24.768 207.417 24.62 207.057 24.508V26.944ZM212.318 26.14C213.086 25.476 213.69 24.932 214.13 24.508C214.578 24.076 214.95 23.628 215.246 23.164C215.542 22.7 215.69 22.236 215.69 21.772C215.69 21.292 215.574 20.916 215.342 20.644C215.118 20.372 214.762 20.236 214.274 20.236C213.802 20.236 213.434 20.388 213.17 20.692C212.914 20.988 212.778 21.388 212.762 21.892H211.442C211.466 20.98 211.738 20.284 212.258 19.804C212.786 19.316 213.454 19.072 214.262 19.072C215.134 19.072 215.814 19.312 216.302 19.792C216.798 20.272 217.046 20.912 217.046 21.712C217.046 22.288 216.898 22.844 216.602 23.38C216.314 23.908 215.966 24.384 215.558 24.808C215.158 25.224 214.646 25.708 214.022 26.26L213.482 26.74H217.286V27.88H211.454V26.884L212.318 26.14ZM219.244 26.14C220.012 25.476 220.616 24.932 221.056 24.508C221.504 24.076 221.876 23.628 222.172 23.164C222.468 22.7 222.616 22.236 222.616 21.772C222.616 21.292 222.5 20.916 222.268 20.644C222.044 20.372 221.688 20.236 221.2 20.236C220.728 20.236 220.36 20.388 220.096 20.692C219.84 20.988 219.704 21.388 219.688 21.892H218.368C218.392 20.98 218.664 20.284 219.184 19.804C219.712 19.316 220.38 19.072 221.188 19.072C222.06 19.072 222.74 19.312 223.228 19.792C223.724 20.272 223.972 20.912 223.972 21.712C223.972 22.288 223.824 22.844 223.528 23.38C223.24 23.908 222.892 24.384 222.484 24.808C222.084 25.224 221.572 25.708 220.948 26.26L220.408 26.74H224.212V27.88H218.38V26.884L219.244 26.14ZM226.145 28.084C225.897 28.084 225.689 28 225.521 27.832C225.353 27.664 225.269 27.456 225.269 27.208C225.269 26.96 225.353 26.752 225.521 26.584C225.689 26.416 225.897 26.332 226.145 26.332C226.385 26.332 226.589 26.416 226.757 26.584C226.925 26.752 227.009 26.96 227.009 27.208C227.009 27.456 226.925 27.664 226.757 27.832C226.589 28 226.385 28.084 226.145 28.084ZM228.308 23.512C228.308 22.128 228.54 21.048 229.004 20.272C229.476 19.488 230.284 19.096 231.428 19.096C232.572 19.096 233.376 19.488 233.84 20.272C234.312 21.048 234.548 22.128 234.548 23.512C234.548 24.912 234.312 26.008 233.84 26.8C233.376 27.584 232.572 27.976 231.428 27.976C230.284 27.976 229.476 27.584 229.004 26.8C228.54 26.008 228.308 24.912 228.308 23.512ZM233.204 23.512C233.204 22.864 233.16 22.316 233.072 21.868C232.992 21.42 232.824 21.056 232.568 20.776C232.312 20.488 231.932 20.344 231.428 20.344C230.924 20.344 230.544 20.488 230.288 20.776C230.032 21.056 229.86 21.42 229.772 21.868C229.692 22.316 229.652 22.864 229.652 23.512C229.652 24.184 229.692 24.748 229.772 25.204C229.852 25.66 230.02 26.028 230.276 26.308C230.54 26.588 230.924 26.728 231.428 26.728C231.932 26.728 232.312 26.588 232.568 26.308C232.832 26.028 233.004 25.66 233.084 25.204C233.164 24.748 233.204 24.184 233.204 23.512ZM235.995 23.512C235.995 22.128 236.227 21.048 236.691 20.272C237.163 19.488 237.971 19.096 239.115 19.096C240.259 19.096 241.063 19.488 241.527 20.272C241.999 21.048 242.235 22.128 242.235 23.512C242.235 24.912 241.999 26.008 241.527 26.8C241.063 27.584 240.259 27.976 239.115 27.976C237.971 27.976 237.163 27.584 236.691 26.8C236.227 26.008 235.995 24.912 235.995 23.512ZM240.891 23.512C240.891 22.864 240.847 22.316 240.759 21.868C240.679 21.42 240.511 21.056 240.255 20.776C239.999 20.488 239.619 20.344 239.115 20.344C238.611 20.344 238.231 20.488 237.975 20.776C237.719 21.056 237.547 21.42 237.459 21.868C237.379 22.316 237.339 22.864 237.339 23.512C237.339 24.184 237.379 24.748 237.459 25.204C237.539 25.66 237.707 26.028 237.963 26.308C238.227 26.588 238.611 26.728 239.115 26.728C239.619 26.728 239.999 26.588 240.255 26.308C240.519 26.028 240.691 25.66 240.771 25.204C240.851 24.748 240.891 24.184 240.891 23.512Z" fill="#F9F9F9"/>
<defs>
<filter id="filter0_dddddd_7_6859" x="0.13562" y="0.703704" width="355.729" height="228.296" filterUnits="userSpaceOnUse" color-interpolation-filters="sRGB">
<feFlood flood-opacity="0" result="BackgroundImageFix"/>
<feColorMatrix in="SourceAlpha" type="matrix" values="0 0 0 0 0 0 0 0 0 0 0 0 0 0 0 0 0 0 127 0" result="hardAlpha"/>
<feOffset dy="1.85185"/>
<feGaussianBlur stdDeviation="1.57407"/>
<feColorMatrix type="matrix" values="0 0 0 0 0.917647 0 0 0 0 0 0 0 0 0 0.145098 0 0 0 0.0240741 0"/>
<feBlend mode="normal" in2="BackgroundImageFix" result="effect1_dropShadow_7_6859"/>
<feColorMatrix in="SourceAlpha" type="matrix" values="0 0 0 0 0 0 0 0 0 0 0 0 0 0 0 0 0 0 127 0" result="hardAlpha"/>
<feOffset dy="8.14815"/>
<feGaussianBlur stdDeviation="3.25926"/>
<feColorMatrix type="matrix" values="0 0 0 0 0.917647 0 0 0 0 0 0 0 0 0 0.145098 0 0 0 0.0392593 0"/>
<feBlend mode="normal" in2="effect1_dropShadow_7_6859" result="effect2_dropShadow_7_6859"/>
<feColorMatrix in="SourceAlpha" type="matrix" values="0 0 0 0 0 0 0 0 0 0 0 0 0 0 0 0 0 0 127 0" result="hardAlpha"/>
<feOffset dy="20"/>
<feGaussianBlur stdDeviation="6.5"/>
<feColorMatrix type="matrix" values="0 0 0 0 0.917647 0 0 0 0 0 0 0 0 0 0.145098 0 0 0 0.05 0"/>
<feBlend mode="normal" in2="effect2_dropShadow_7_6859" result="effect3_dropShadow_7_6859"/>
<feColorMatrix in="SourceAlpha" type="matrix" values="0 0 0 0 0 0 0 0 0 0 0 0 0 0 0 0 0 0 127 0" result="hardAlpha"/>
<feOffset dy="38.5185"/>
<feGaussianBlur stdDeviation="12.7407"/>
<feColorMatrix type="matrix" values="0 0 0 0 0.917647 0 0 0 0 0 0 0 0 0 0.145098 0 0 0 0.0607407 0"/>
<feBlend mode="normal" in2="effect3_dropShadow_7_6859" result="effect4_dropShadow_7_6859"/>
<feColorMatrix in="SourceAlpha" type="matrix" values="0 0 0 0 0 0 0 0 0 0 0 0 0 0 0 0 0 0 127 0" result="hardAlpha"/>
<feOffset dy="64.8148"/>
<feGaussianBlur stdDeviation="23.4259"/>
<feColorMatrix type="matrix" values="0 0 0 0 0.917647 0 0 0 0 0 0 0 0 0 0.145098 0 0 0 0.0759259 0"/>
<feBlend mode="normal" in2="effect4_dropShadow_7_6859" result="effect5_dropShadow_7_6859"/>
<feColorMatrix in="SourceAlpha" type="matrix" values="0 0 0 0 0 0 0 0 0 0 0 0 0 0 0 0 0 0 127 0" result="hardAlpha"/>
<feOffset dy="100"/>
<feGaussianBlur stdDeviation="40"/>
<feColorMatrix type="matrix" values="0 0 0 0 0.917647 0 0 0 0 0 0 0 0 0 0.145098 0 0 0 0.1 0"/>
<feBlend mode="normal" in2="effect5_dropShadow_7_6859" result="effect6_dropShadow_7_6859"/>
<feBlend mode="normal" in="SourceGraphic" in2="effect6_dropShadow_7_6859" result="shape"/>
</filter>
</defs>
</svg>
