<svg width="114" height="35" viewBox="0 0 114 35" fill="none" xmlns="http://www.w3.org/2000/svg">
<path d="M7.712 34.2082H3.2L6.912 26.0162L0.223999 12.2562H4.992L9.184 21.4722L13.056 12.2562H17.6L7.712 34.2082Z" fill="#2A333E"/>
<path d="M18.7495 23.7122C18.7495 22.3682 19.1868 21.2909 20.0615 20.4802C20.9362 19.6695 22.0668 19.1575 23.4535 18.9442L27.3255 18.3682C28.1148 18.2615 28.5095 17.8882 28.5095 17.2482C28.5095 16.6509 28.2748 16.1602 27.8055 15.7762C27.3575 15.3922 26.7068 15.2002 25.8535 15.2002C24.9575 15.2002 24.2428 15.4455 23.7095 15.9362C23.1975 16.4269 22.9095 17.0349 22.8455 17.7602L19.0695 16.9602C19.2188 15.5949 19.8908 14.3895 21.0855 13.3442C22.2802 12.2989 23.8588 11.7762 25.8215 11.7762C28.1682 11.7762 29.8962 12.3415 31.0055 13.4722C32.1148 14.5815 32.6695 16.0109 32.6695 17.7602V25.5042C32.6695 26.4429 32.7335 27.2749 32.8615 28.0002H28.9575C28.8508 27.5309 28.7975 26.9015 28.7975 26.1122C27.7948 27.6695 26.2482 28.4482 24.1575 28.4482C22.5362 28.4482 21.2242 27.9789 20.2215 27.0402C19.2402 26.1015 18.7495 24.9922 18.7495 23.7122ZM25.0535 25.2802C26.0562 25.2802 26.8775 25.0029 27.5175 24.4482C28.1788 23.8722 28.5095 22.9335 28.5095 21.6322V20.9282L24.9575 21.4722C23.6562 21.6642 23.0055 22.3255 23.0055 23.4562C23.0055 23.9682 23.1868 24.4055 23.5495 24.7682C23.9122 25.1095 24.4135 25.2802 25.0535 25.2802Z" fill="#2A333E"/>
<path d="M41.2155 18.9442V28.0002H36.9595V12.2562H41.0875V14.2082C41.5355 13.4402 42.1755 12.8535 43.0075 12.4482C43.8395 12.0429 44.7142 11.8402 45.6315 11.8402C47.4875 11.8402 48.8955 12.4269 49.8555 13.6002C50.8368 14.7522 51.3275 16.2455 51.3275 18.0802V28.0002H47.0715V18.8162C47.0715 17.8775 46.8262 17.1202 46.3355 16.5442C45.8662 15.9682 45.1408 15.6802 44.1595 15.6802C43.2635 15.6802 42.5488 15.9895 42.0155 16.6082C41.4822 17.2269 41.2155 18.0055 41.2155 18.9442Z" fill="#2A333E"/>
<path d="M59.903 18.9442V28.0002H55.647V12.2562H59.775V14.2082C60.223 13.4402 60.863 12.8535 61.695 12.4482C62.527 12.0429 63.4017 11.8402 64.319 11.8402C66.175 11.8402 67.583 12.4269 68.543 13.6002C69.5243 14.7522 70.015 16.2455 70.015 18.0802V28.0002H65.759V18.8162C65.759 17.8775 65.5137 17.1202 65.023 16.5442C64.5537 15.9682 63.8283 15.6802 62.847 15.6802C61.951 15.6802 61.2363 15.9895 60.703 16.6082C60.1697 17.2269 59.903 18.0055 59.903 18.9442Z" fill="#2A333E"/>
<path d="M73.3745 23.7122C73.3745 22.3682 73.8118 21.2909 74.6865 20.4802C75.5612 19.6695 76.6918 19.1575 78.0785 18.9442L81.9505 18.3682C82.7398 18.2615 83.1345 17.8882 83.1345 17.2482C83.1345 16.6509 82.8998 16.1602 82.4305 15.7762C81.9825 15.3922 81.3318 15.2002 80.4785 15.2002C79.5825 15.2002 78.8678 15.4455 78.3345 15.9362C77.8225 16.4269 77.5345 17.0349 77.4705 17.7602L73.6945 16.9602C73.8438 15.5949 74.5158 14.3895 75.7105 13.3442C76.9052 12.2989 78.4838 11.7762 80.4465 11.7762C82.7932 11.7762 84.5212 12.3415 85.6305 13.4722C86.7398 14.5815 87.2945 16.0109 87.2945 17.7602V25.5042C87.2945 26.4429 87.3585 27.2749 87.4865 28.0002H83.5825C83.4758 27.5309 83.4225 26.9015 83.4225 26.1122C82.4198 27.6695 80.8732 28.4482 78.7825 28.4482C77.1612 28.4482 75.8492 27.9789 74.8465 27.0402C73.8652 26.1015 73.3745 24.9922 73.3745 23.7122ZM79.6785 25.2802C80.6812 25.2802 81.5025 25.0029 82.1425 24.4482C82.8038 23.8722 83.1345 22.9335 83.1345 21.6322V20.9282L79.5825 21.4722C78.2812 21.6642 77.6305 22.3255 77.6305 23.4562C77.6305 23.9682 77.8118 24.4055 78.1745 24.7682C78.5372 25.1095 79.0385 25.2802 79.6785 25.2802Z" fill="#2A333E"/>
<path d="M95.8405 28.0002H91.5845V4.83219H95.8405V28.0002Z" fill="#2A333E"/>
<path d="M103.128 1.84819H100.356V9.00019H98.916V1.84819H96.156V0.492188H103.128V1.84819Z" fill="#2A333E"/>
<path d="M113.669 9.00019H112.241V2.73619L109.589 9.00019H108.341L105.713 2.76019V9.00019H104.309V0.492188H106.229L108.989 6.98419L111.713 0.492188H113.669V9.00019Z" fill="#2A333E"/>
</svg>
